<?xml version="1.0" encoding="utf-8"?>
<!-- Generator: Adobe Illustrator 16.0.0, SVG Export Plug-In . SVG Version: 6.00 Build 0)  -->
<!DOCTYPE svg PUBLIC "-//W3C//DTD SVG 1.1//EN" "http://www.w3.org/Graphics/SVG/1.1/DTD/svg11.dtd">
<svg version="1.1" id="Layer_1" xmlns="http://www.w3.org/2000/svg" xmlns:xlink="http://www.w3.org/1999/xlink" x="0px" y="0px"
	 width="1000px" height="1000px" viewBox="0 0 1000 1000" enable-background="new 0 0 1000 1000" xml:space="preserve">
<path fill-rule="evenodd" clip-rule="evenodd" fill="#E2434B" d="M391,1001c-128.5,0-257-0.019-385.5,0.095
	c-3.75,0.003-4.594-0.846-4.593-4.595c0.1-330.333,0.1-660.667,0-991C0.906,1.751,1.751,0.905,5.5,0.907
	c330.333,0.101,660.667,0.101,991,0c3.749-0.002,4.596,0.844,4.594,4.593C1000.988,223.667,1001,441.833,1001,660
	c-2.818-0.824-5.213-2.592-6.902-4.737c-5.884-7.47-12.879-13.891-19.356-20.774c-19.151-20.351-38.653-40.374-58.195-60.352
	c-21.765-22.25-43.57-44.454-65.053-66.98c-23.879-25.041-48.192-49.667-72.327-74.465c-16.101-16.543-32.267-33.021-48.31-49.62
	c-9.358-9.683-18.416-19.655-27.812-29.301c-20.547-21.094-41.194-42.089-61.898-63.027c-1.629-1.647-2.266-4.63-5.367-4.604
	c-0.496-0.851-1.036-1.679-1.482-2.555c-25.533-50.146-66.41-78.575-122.323-83.18c-43.301-3.566-81.39,10.732-112.788,40.964
	c-50.943,49.05-58.631,126.386-22.268,183.924c5.157,8.16,11.682,15.26,17.131,23.175c0.856,3.426,2.274,6.231,6.522,5.923
	l-0.067,0.436l-0.436-0.065c0.368,0.399,0.736,0.798,1.104,1.196l-0.177-0.293l0.274-0.206c-0.595,2.395,1.134,3.59,2.521,5.013
	c22.32,22.899,44.606,45.831,66.975,68.683c1.51,1.542,2.389,3.102,2.475,5.186c-0.625,0.186-1.242,0.49-1.878,0.541
	c-36.104,2.907-70.829,11.358-104.053,25.853c-55.6,24.258-100.951,60.715-132.906,112.731
	c-23.547,38.331-35.238,80.182-35.143,125.23c0.005,2.549-0.727,5.422,1.733,7.466c2.118,0.954,4.32,1.773,6.005,3.465
	c8.457,8.491,17.171,16.744,25.283,25.552c8.893,9.655,18.45,18.649,27.195,28.464c8.811,9.889,18.679,18.828,27.905,28.356
	c13.872,14.326,27.508,28.881,41.392,43.197c17.03,17.561,34.341,34.852,51.23,52.546C383.935,991.857,389.296,994.975,391,1001z"/>
<path fill-rule="evenodd" clip-rule="evenodd" fill="#8A222E" d="M635.779,286.139c3.102-0.025,3.738,2.957,5.367,4.604
	c20.704,20.938,41.352,41.934,61.898,63.027c9.396,9.646,18.453,19.618,27.812,29.301c16.043,16.599,32.209,33.077,48.31,49.62
	c24.135,24.798,48.448,49.424,72.327,74.465c21.482,22.526,43.288,44.73,65.053,66.98c19.542,19.978,39.044,40.001,58.195,60.352
	c6.478,6.884,13.473,13.305,19.356,20.774c1.689,2.146,4.084,3.913,6.902,4.737c0,112.274-0.026,224.549,0.112,336.823
	c0.005,3.799-1.019,4.259-4.431,4.258C794.787,1000.99,592.894,1001,391,1001c-1.704-6.025-7.065-9.143-10.996-13.261
	c-16.889-17.694-34.2-34.985-51.23-52.546c-13.883-14.316-27.52-28.871-41.392-43.197c-9.226-9.528-19.094-18.468-27.905-28.356
	c-8.745-9.814-18.302-18.809-27.195-28.464c-8.112-8.808-16.827-17.061-25.283-25.552c-1.685-1.691-3.887-2.511-6.005-3.465
	c14.49-0.085,28.98-0.242,43.471-0.244c183.427-0.017,366.855-0.011,550.282-0.011c6.88,0,6.937-0.001,6.958-7.091
	c0.032-10.168-0.51-20.306-1.754-30.405c-4.213-34.201-15.525-65.921-33.508-95.256c-23.326-38.052-54.561-68.194-92.458-91.519
	c-43.862-26.996-91.654-42.084-142.856-46.725c-19.286-1.748-38.583-1.341-57.888-0.571c-0.086-2.084-0.965-3.644-2.475-5.186
	c-22.369-22.852-44.655-45.783-66.975-68.683c-1.386-1.423-3.116-2.618-2.52-5.012c1.844,0.542,3.004,2.027,4.39,3.192
	c34.19,28.724,73.614,40.052,117.632,33.907c35.31-4.929,64.895-21.529,88.545-48.165c24.045-27.081,36.055-59.093,36.914-95.213
	C649.273,327.224,644.382,306.272,635.779,286.139z"/>
<path fill-rule="evenodd" clip-rule="evenodd" fill="#FDFEFE" d="M473.241,534.338c19.306-0.77,38.602-1.177,57.888,0.571
	c51.202,4.641,98.994,19.729,142.856,46.725c37.897,23.324,69.132,53.467,92.458,91.519c17.982,29.335,29.295,61.055,33.508,95.256
	c1.244,10.1,1.786,20.237,1.754,30.405c-0.021,7.09-0.078,7.091-6.958,7.091c-183.427,0-366.855-0.006-550.282,0.011
	c-14.49,0.002-28.98,0.159-43.471,0.244c-2.459-2.044-1.728-4.917-1.733-7.466c-0.095-45.049,11.596-86.899,35.143-125.23
	c31.955-52.017,77.306-88.474,132.906-112.731c33.224-14.494,67.948-22.945,104.053-25.853
	C471.999,534.828,472.615,534.523,473.241,534.338z"/>
<path fill-rule="evenodd" clip-rule="evenodd" fill="#FDFEFE" d="M635.779,286.139c8.603,20.134,13.494,41.085,12.973,63.041
	c-0.859,36.12-12.869,68.132-36.914,95.213c-23.65,26.636-53.235,43.236-88.545,48.165c-44.018,6.145-83.441-5.184-117.632-33.907
	c-1.386-1.165-2.546-2.65-4.39-3.192c-0.001-0.001-0.275,0.205-0.275,0.205s0.177,0.293,0.178,0.293
	c0.31-1.026-0.101-1.386-1.105-1.196l0.436,0.065c0,0,0.067-0.436,0.065-0.437c-1.995-2.172-3.687-4.675-6.52-5.922
	c-5.45-7.915-11.974-15.015-17.131-23.175c-36.363-57.538-28.676-134.874,22.268-183.924c31.398-30.231,69.487-44.53,112.788-40.964
	c55.913,4.604,96.79,33.034,122.323,83.18C634.743,284.46,635.283,285.288,635.779,286.139z"/>
</svg>
