<?xml version="1.0" encoding="utf-8"?>
<!-- Generator: Adobe Illustrator 16.0.0, SVG Export Plug-In . SVG Version: 6.00 Build 0)  -->
<!DOCTYPE svg PUBLIC "-//W3C//DTD SVG 1.1//EN" "http://www.w3.org/Graphics/SVG/1.1/DTD/svg11.dtd">
<svg version="1.1" id="Layer_1" xmlns="http://www.w3.org/2000/svg" xmlns:xlink="http://www.w3.org/1999/xlink" x="0px" y="0px"
	 width="512px" height="512px" viewBox="0 0 512 512" enable-background="new 0 0 512 512" xml:space="preserve">
<g>
	<path fill-rule="evenodd" clip-rule="evenodd" fill="#34222E" d="M259.029,60.766c1.371,2.058,3.105,3.961,4.057,6.197
		c10.332,24.301,19.173,49.104,23.756,75.208c3.492,19.89,4.676,39.775-2.492,59.235c-5.309,14.415-14.1,26.115-27.303,34.478
		c-8.82-5.238-15.568-12.402-20.896-20.954c-12.2-19.587-13.333-41.099-10.552-63.151c3.844-30.482,14.31-59.033,26.126-87.145
		c0.635-1.509,2.294-2.588,3.476-3.867C256.479,60.766,257.754,60.766,259.029,60.766z"/>
	<path fill-rule="evenodd" clip-rule="evenodd" fill="#34222E" d="M260.561,452.701c-3.346-6.914-7.564-13.551-9.869-20.797
		c-5.823-18.3-10.827-36.862-16.005-55.362c-0.372-1.327-0.007-3.46,0.876-4.443c8.681-9.662,15.798-20.293,20.837-32.288
		c0.086-0.207,0.369-0.333,0.451-0.402c3.43,6.15,6.307,12.73,10.447,18.385c5.475,7.477,11.998,14.179,17.914,21.344
		c0.975,1.18,1.758,3.089,1.6,4.549c-2.478,22.793-10.063,44.111-19.16,64.96c-0.669,1.534-2.156,2.712-3.264,4.056
		C263.112,452.701,261.836,452.701,260.561,452.701z"/>
	<path fill-rule="evenodd" clip-rule="evenodd" fill="#34222E" d="M87.313,180.363c27.184,1.336,54.098,4.489,80.132,12.883
		c19.125,6.167,36.412,15.323,48.884,31.762c6.416,8.456,10.564,17.938,12.524,28.401c0.413,2.204-0.002,3.427-2.015,4.605
		c-15.505,9.073-32.076,10.999-49.455,7.566c-18.159-3.585-33.758-12.642-48.578-23.197c-21.836-15.552-40.65-34.404-58.397-54.355
		c-1.266-1.422-2.041-4.378-1.429-6.018c0.475-1.273,3.454-2.18,5.351-2.238C78.648,179.639,82.985,180.127,87.313,180.363z"/>
	<path fill-rule="evenodd" clip-rule="evenodd" fill="#34222E" d="M429.439,180.363c3.947-0.189,7.896-0.547,11.84-0.489
		c1.739,0.025,3.465,0.894,5.197,1.38c-0.565,1.853-0.624,4.147-1.785,5.482c-5.1,5.865-10.418,11.551-15.84,17.124
		c-16.934,17.402-34.924,33.569-55.653,46.417c-15.476,9.591-31.94,16.401-50.456,16.891c-12.771,0.339-24.687-2.761-35.793-9.181
		c-3.042-1.76-2.029-4.08-1.568-6.277c2.827-13.472,9.404-24.937,19.101-34.616c11.84-11.82,26.452-18.865,42.136-23.891
		C373.538,184.575,401.385,181.75,429.439,180.363z"/>
	<path fill-rule="evenodd" clip-rule="evenodd" fill="#34222E" d="M285.391,290.847c20.527,0.131,36.768,7.62,50.947,19.958
		c17.197,14.964,29.496,33.734,39.829,53.725c7.761,15.014,14.307,30.655,21.409,46.01c1.162,2.512,1.394,4.88-0.735,7.025
		c-2.097,2.113-4.167,0.901-6.313,0.035c-24.602-9.931-48.619-21.027-70.593-36.068c-15.779-10.803-30.301-22.961-39.783-40.026
		c-7.979-14.36-11.271-29.614-8.348-46.009c0.404-2.26,1.247-3.371,3.564-3.563C279.171,291.621,282.956,291.119,285.391,290.847z"
		/>
	<path fill-rule="evenodd" clip-rule="evenodd" fill="#34222E" d="M228.849,290.895c2.007,0.222,5.541,0.766,9.093,0.953
		c2.859,0.152,3.864,1.557,4.275,4.223c2.864,18.557-1.575,35.402-11.8,50.882c-9.379,14.199-22.24,24.817-36.074,34.327
		c-21.854,15.022-45.795,26.027-70.219,36.077c-2.475,1.019-4.7,1.082-6.682-0.913c-1.992-2.004-1.842-4.226-0.829-6.691
		c10.039-24.43,21.046-48.368,36.074-70.22c10.85-15.775,23.167-30.126,40.268-39.568
		C203.642,294.064,215.035,290.816,228.849,290.895z"/>
	<path fill-rule="evenodd" clip-rule="evenodd" fill="#34222E" d="M177.372,286.141c-4.425,3.409-8.989,6.645-13.219,10.27
		c-3.669,3.143-6.84,6.865-10.48,10.047c-1.365,1.191-3.43,2.225-5.182,2.236c-18.692,0.119-37.056-2.805-55.316-6.456
		c-7.113-1.423-14.228-2.923-21.208-4.868c-1.967-0.549-4.15-2.489-5-4.354c-1.213-2.661,1.063-4.4,3.335-5.599
		c15.865-8.374,31.745-16.721,47.589-25.136c2.163-1.148,3.847-0.978,5.93,0.412c14.058,9.373,28.849,17.235,45.436,21.216
		c2.586,0.62,5.177,1.218,7.762,1.839C177.119,285.773,177.188,285.931,177.372,286.141z"/>
	<path fill-rule="evenodd" clip-rule="evenodd" fill="#34222E" d="M205.839,188.993c-5.184-2.676-10.267-5.563-15.57-7.961
		c-5.087-2.302-10.331-4.326-15.648-6.025c-2.91-0.93-4.248-2.512-5.113-5.333c-6.708-21.864-10.622-44.259-13.052-66.948
		c-0.23-2.147-0.646-4.324-0.49-6.451c0.31-4.204,2.386-5.12,5.684-2.492c7.468,5.952,15.063,11.776,22.164,18.146
		c7.767,6.967,14.952,14.578,22.574,21.712c2.299,2.152,1.376,4.393,1.163,6.686c-0.918,9.872-2.258,19.721-2.736,29.613
		C204.51,176.229,205.451,182.58,205.839,188.993z"/>
	<path fill-rule="evenodd" clip-rule="evenodd" fill="#34222E" d="M308.854,187.954c0-7.786,0.223-16.168-0.072-24.532
		c-0.229-6.474-1.219-12.919-1.602-19.392c-0.08-1.349,0.625-3.235,1.633-4.081c15.343-12.882,31.502-24.62,49.225-34.058
		c1.629-0.867,4.75-1.749,5.4-1.025c1.194,1.328,1.763,3.994,1.375,5.848c-3.879,18.59-9.713,36.587-16.408,54.359
		c-2.229,5.916-5.506,8.885-11.523,10.914C327.071,179.291,317.758,184.068,308.854,187.954z"/>
	<path fill-rule="evenodd" clip-rule="evenodd" fill="#34222E" d="M337.271,285.539c2.054-0.459,4.766-1.023,7.457-1.67
		c13.752-3.304,26.386-9.223,38.325-16.668c2.237-1.395,3.972-1.556,6.236-0.156c14.718,9.088,29.526,18.03,44.218,27.161
		c1.447,0.899,2.303,2.751,3.433,4.159c-1.571,1.12-3.02,2.952-4.732,3.246c-13.415,2.297-26.847,4.57-40.345,6.296
		c-8.572,1.097-17.262,1.295-25.906,1.761c-1.263,0.068-2.925-0.223-3.794-1.015C353.818,301.057,345.605,293.314,337.271,285.539z"
		/>
	<path fill-rule="evenodd" clip-rule="evenodd" fill="#34222E" d="M269.318,250.78c3.84,0.014,7.324,3.572,7.256,7.411
		c-0.07,3.988-3.436,7.168-7.479,7.066c-3.893-0.098-6.979-3.22-7.016-7.101C262.043,254.207,265.419,250.766,269.318,250.78z"/>
	<path fill-rule="evenodd" clip-rule="evenodd" fill="#34222E" d="M255.45,272.255c3.875,0.083,7.296,3.685,7.144,7.519
		c-0.16,4.021-3.523,7.1-7.589,6.948c-3.913-0.146-6.879-3.259-6.863-7.202C248.159,275.488,251.498,272.17,255.45,272.255z"/>
	<path fill-rule="evenodd" clip-rule="evenodd" fill="#34222E" d="M248.511,258.075c0.003,4.093-3.167,7.229-7.26,7.183
		c-4.013-0.045-7.289-3.404-7.174-7.357c0.108-3.753,3.414-7.033,7.159-7.104C245.184,250.722,248.507,254.046,248.511,258.075z"/>
</g>
</svg>
