<?xml version="1.0" encoding="utf-8"?>
<!-- Generator: Adobe Illustrator 16.0.0, SVG Export Plug-In . SVG Version: 6.00 Build 0)  -->
<!DOCTYPE svg PUBLIC "-//W3C//DTD SVG 1.1//EN" "http://www.w3.org/Graphics/SVG/1.1/DTD/svg11.dtd">
<svg version="1.1" id="Layer_1" xmlns="http://www.w3.org/2000/svg" xmlns:xlink="http://www.w3.org/1999/xlink" x="0px" y="0px"
	 width="512px" height="512px" viewBox="0 0 512 512" enable-background="new 0 0 512 512" xml:space="preserve">
<g>
	<path fill="#E2434B" d="M259.029,60.766c1.371,2.058,3.104,3.961,4.058,6.197c10.332,24.301,19.172,49.104,23.756,75.208
		c3.492,19.89,4.676,39.775-2.492,59.235c-5.309,14.415-14.1,26.115-27.303,34.478c-8.82-5.238-15.568-12.402-20.896-20.954
		c-12.2-19.587-13.333-41.099-10.552-63.151c3.844-30.482,14.31-59.033,26.126-87.145c0.635-1.509,2.294-2.588,3.476-3.867
		C256.479,60.766,257.754,60.766,259.029,60.766z"/>
	<path fill="#E2434B" d="M260.561,452.701c-3.346-6.914-7.564-13.552-9.869-20.798c-5.823-18.3-10.827-36.861-16.005-55.361
		c-0.372-1.327-0.007-3.46,0.876-4.442c8.681-9.662,15.798-20.293,20.837-32.289c0.086-0.207,0.369-0.332,0.451-0.401
		c3.43,6.149,6.308,12.729,10.446,18.385c5.476,7.478,11.998,14.179,17.914,21.345c0.976,1.18,1.759,3.088,1.601,4.549
		c-2.478,22.793-10.063,44.11-19.16,64.96c-0.669,1.533-2.155,2.711-3.264,4.056C263.112,452.701,261.836,452.701,260.561,452.701z"
		/>
	<path fill="#E2434B" d="M87.313,180.363c27.184,1.336,54.098,4.489,80.132,12.883c19.125,6.167,36.412,15.323,48.884,31.762
		c6.416,8.456,10.564,17.938,12.524,28.401c0.413,2.204-0.002,3.427-2.015,4.604c-15.505,9.073-32.076,11-49.455,7.566
		c-18.159-3.585-33.758-12.642-48.578-23.197c-21.836-15.552-40.65-34.404-58.397-54.355c-1.266-1.422-2.041-4.378-1.429-6.018
		c0.475-1.273,3.454-2.18,5.351-2.238C78.648,179.639,82.985,180.127,87.313,180.363z"/>
	<path fill="#E2434B" d="M429.439,180.363c3.947-0.189,7.896-0.547,11.84-0.489c1.739,0.025,3.466,0.894,5.197,1.38
		c-0.565,1.853-0.624,4.147-1.785,5.482c-5.101,5.865-10.418,11.551-15.84,17.124c-16.935,17.402-34.925,33.569-55.653,46.417
		c-15.476,9.591-31.939,16.401-50.455,16.891c-12.771,0.339-24.688-2.761-35.793-9.182c-3.043-1.759-2.029-4.079-1.568-6.276
		c2.826-13.472,9.404-24.937,19.101-34.616c11.84-11.82,26.452-18.865,42.136-23.891
		C373.538,184.575,401.385,181.75,429.439,180.363z"/>
	<path fill="#E2434B" d="M285.391,290.848c20.527,0.131,36.768,7.619,50.947,19.957c17.197,14.965,29.496,33.734,39.828,53.725
		c7.762,15.015,14.308,30.656,21.41,46.011c1.161,2.512,1.394,4.88-0.736,7.024c-2.096,2.113-4.166,0.901-6.313,0.035
		c-24.602-9.931-48.619-21.026-70.593-36.067c-15.779-10.804-30.302-22.962-39.783-40.026c-7.979-14.359-11.271-29.613-8.348-46.009
		c0.403-2.261,1.247-3.371,3.563-3.563C279.17,291.621,282.956,291.119,285.391,290.848z"/>
	<path fill="#E2434B" d="M228.849,290.895c2.007,0.223,5.541,0.767,9.093,0.953c2.859,0.152,3.864,1.557,4.275,4.223
		c2.864,18.558-1.575,35.402-11.8,50.883c-9.379,14.199-22.24,24.816-36.074,34.326c-21.854,15.022-45.795,26.027-70.219,36.078
		c-2.475,1.019-4.7,1.082-6.682-0.914c-1.992-2.004-1.842-4.226-0.829-6.69c10.039-24.431,21.046-48.368,36.074-70.22
		c10.85-15.775,23.167-30.127,40.268-39.568C203.642,294.064,215.035,290.816,228.849,290.895z"/>
	<path fill="#E2434B" d="M177.372,286.141c-4.425,3.409-8.989,6.646-13.219,10.271c-3.669,3.144-6.84,6.864-10.48,10.047
		c-1.365,1.19-3.43,2.226-5.182,2.235c-18.692,0.119-37.056-2.805-55.316-6.455c-7.113-1.424-14.228-2.924-21.208-4.868
		c-1.967-0.55-4.15-2.489-5-4.354c-1.213-2.66,1.063-4.399,3.335-5.599c15.865-8.374,31.745-16.722,47.589-25.136
		c2.163-1.148,3.847-0.979,5.93,0.412c14.058,9.373,28.849,17.234,45.436,21.216c2.586,0.62,5.177,1.218,7.762,1.839
		C177.119,285.773,177.188,285.932,177.372,286.141z"/>
	<path fill="#E2434B" d="M205.839,188.993c-5.184-2.676-10.267-5.563-15.57-7.961c-5.087-2.302-10.331-4.326-15.648-6.025
		c-2.91-0.93-4.248-2.512-5.113-5.333c-6.708-21.864-10.622-44.259-13.052-66.948c-0.23-2.147-0.646-4.324-0.49-6.451
		c0.31-4.204,2.386-5.12,5.684-2.492c7.468,5.952,15.063,11.776,22.164,18.146c7.767,6.967,14.952,14.578,22.574,21.712
		c2.299,2.152,1.376,4.393,1.163,6.686c-0.918,9.872-2.258,19.721-2.736,29.613C204.51,176.229,205.451,182.58,205.839,188.993z"/>
	<path fill="#E2434B" d="M308.854,187.954c0-7.786,0.223-16.168-0.072-24.532c-0.229-6.474-1.219-12.919-1.602-19.392
		c-0.08-1.349,0.625-3.235,1.633-4.081c15.343-12.882,31.502-24.62,49.225-34.058c1.629-0.867,4.75-1.749,5.4-1.025
		c1.193,1.328,1.764,3.994,1.375,5.848c-3.879,18.59-9.713,36.587-16.408,54.359c-2.229,5.916-5.506,8.885-11.523,10.914
		C327.071,179.291,317.758,184.068,308.854,187.954z"/>
	<path fill="#E2434B" d="M337.271,285.539c2.054-0.459,4.767-1.023,7.457-1.67c13.752-3.305,26.386-9.223,38.325-16.668
		c2.236-1.395,3.972-1.557,6.236-0.156c14.717,9.088,29.525,18.03,44.217,27.161c1.447,0.899,2.304,2.751,3.434,4.159
		c-1.57,1.119-3.02,2.951-4.732,3.246c-13.414,2.297-26.847,4.57-40.345,6.296c-8.571,1.097-17.262,1.295-25.905,1.761
		c-1.264,0.068-2.926-0.223-3.795-1.016C353.818,301.057,345.605,293.314,337.271,285.539z"/>
	<path fill="#E2434B" d="M269.318,250.78c3.841,0.014,7.324,3.572,7.257,7.412c-0.07,3.988-3.437,7.168-7.479,7.065
		c-3.894-0.098-6.979-3.22-7.017-7.101C262.043,254.207,265.418,250.766,269.318,250.78z"/>
	<path fill="#E2434B" d="M255.45,272.255c3.875,0.083,7.296,3.685,7.144,7.519c-0.16,4.021-3.523,7.101-7.589,6.949
		c-3.913-0.146-6.879-3.26-6.863-7.203C248.159,275.488,251.498,272.17,255.45,272.255z"/>
	<path fill="#E2434B" d="M248.511,258.075c0.003,4.093-3.167,7.229-7.26,7.183c-4.013-0.045-7.289-3.404-7.174-7.357
		c0.108-3.752,3.414-7.032,7.159-7.104C245.184,250.722,248.507,254.046,248.511,258.075z"/>
</g>
</svg>
